<svg width="12" height="15" viewBox="0 0 12 15" fill="none" xmlns="http://www.w3.org/2000/svg">
<path d="M1.14076 5.21952C2.28309 -0.410838 9.72272 -0.404336 10.8593 5.22602C11.5261 8.52881 9.69373 11.3245 8.08751 13.0539C7.52625 13.6608 6.77688 14 5.99711 14C5.21734 14 4.46797 13.6608 3.90671 13.0539C2.30629 11.3245 0.473924 8.52231 1.14076 5.21952V5.21952Z" stroke="#636363"/>
<path d="M6 8C6.26264 8 6.52272 7.9612 6.76537 7.88582C7.00802 7.81044 7.2285 7.69995 7.41421 7.56066C7.59993 7.42137 7.74725 7.25601 7.84776 7.07402C7.94827 6.89204 8 6.69698 8 6.5C8 6.30302 7.94827 6.10796 7.84776 5.92597C7.74725 5.74399 7.59993 5.57863 7.41421 5.43934C7.2285 5.30005 7.00802 5.18956 6.76537 5.11418C6.52272 5.0388 6.26264 5 6 5C5.46957 5 4.96086 5.15804 4.58579 5.43934C4.21071 5.72064 4 6.10218 4 6.5C4 6.89782 4.21071 7.27936 4.58579 7.56066C4.96086 7.84196 5.46957 8 6 8V8Z" stroke="#636363"/>
</svg>
