<svg width="12" height="13" viewBox="0 0 12 13" fill="none" xmlns="http://www.w3.org/2000/svg">
<path d="M4.35183 11.9386L5.64484 10.8387C5.83907 10.6703 6.16093 10.6703 6.35516 10.8387L7.64817 11.9386C7.94784 12.0901 8.3141 11.9386 8.42508 11.6131L8.66926 10.8667C8.7303 10.6872 8.66926 10.4234 8.53607 10.2887L7.27636 9.00927C7.18202 8.91949 7.10988 8.73991 7.10988 8.61084V7.01151C7.10988 6.77582 7.28191 6.66359 7.49834 6.75338L10.2231 7.94305C10.6504 8.12824 11 7.89816 11 7.42678V6.70287C11 6.32689 10.7225 5.89479 10.3785 5.74889L7.27636 4.39647C7.22882 4.37179 7.18846 4.335 7.15926 4.28973C7.13007 4.24446 7.11305 4.19228 7.10988 4.13833V2.45483C7.10988 1.92733 6.72697 1.30443 6.26082 1.06313C6.09434 0.978956 5.90011 0.978956 5.73363 1.06313C5.26748 1.30443 4.88457 1.93294 4.88457 2.46044V4.14395C4.88457 4.24496 4.80688 4.3628 4.71809 4.40208L1.62153 5.7545C1.27747 5.89479 1 6.32689 1 6.70287V7.42678C1 7.89816 1.34961 8.12824 1.77691 7.94305L4.50167 6.75338C4.71254 6.65798 4.89012 6.77582 4.89012 7.01151V8.61084C4.89012 8.73991 4.81798 8.91949 4.72919 9.00927L3.46948 10.2887C3.33629 10.4234 3.27525 10.6816 3.33629 10.8667L3.58047 11.6131C3.68036 11.9386 4.04661 12.0957 4.35183 11.9386V11.9386Z" stroke="#636363" stroke-linecap="round" stroke-linejoin="round"/>
</svg>
