<svg width="21" height="21" viewBox="0 0 21 21" fill="none" xmlns="http://www.w3.org/2000/svg">
<path d="M15.4 9.7C15.4 9.51435 15.4685 9.3363 15.5904 9.20503C15.7123 9.07375 15.8776 9 16.05 9H17.35C17.5224 9 17.6877 9.07375 17.8096 9.20503C17.9315 9.3363 18 9.51435 18 9.7V11.1C18 11.2857 17.9315 11.4637 17.8096 11.595C17.6877 11.7263 17.5224 11.8 17.35 11.8H16.05C15.8776 11.8 15.7123 11.7263 15.5904 11.595C15.4685 11.4637 15.4 11.2857 15.4 11.1V9.7ZM11.5 9.7C11.5 9.51435 11.5685 9.3363 11.6904 9.20503C11.8123 9.07375 11.9776 9 12.15 9H13.45C13.6224 9 13.7877 9.07375 13.9096 9.20503C14.0315 9.3363 14.1 9.51435 14.1 9.7V11.1C14.1 11.2857 14.0315 11.4637 13.9096 11.595C13.7877 11.7263 13.6224 11.8 13.45 11.8H12.15C11.9776 11.8 11.8123 11.7263 11.6904 11.595C11.5685 11.4637 11.5 11.2857 11.5 11.1V9.7ZM5 13.9C5 13.7143 5.06848 13.5363 5.19038 13.405C5.31228 13.2737 5.47761 13.2 5.65 13.2H6.95C7.12239 13.2 7.28772 13.2737 7.40962 13.405C7.53152 13.5363 7.6 13.7143 7.6 13.9V15.3C7.6 15.4857 7.53152 15.6637 7.40962 15.795C7.28772 15.9263 7.12239 16 6.95 16H5.65C5.47761 16 5.31228 15.9263 5.19038 15.795C5.06848 15.6637 5 15.4857 5 15.3V13.9ZM8.9 13.9C8.9 13.7143 8.96848 13.5363 9.09038 13.405C9.21228 13.2737 9.37761 13.2 9.55 13.2H10.85C11.0224 13.2 11.1877 13.2737 11.3096 13.405C11.4315 13.5363 11.5 13.7143 11.5 13.9V15.3C11.5 15.4857 11.4315 15.6637 11.3096 15.795C11.1877 15.9263 11.0224 16 10.85 16H9.55C9.37761 16 9.21228 15.9263 9.09038 15.795C8.96848 15.6637 8.9 15.4857 8.9 15.3V13.9Z" fill="#636363"/>
<path d="M4.59375 0C4.7678 0 4.93472 0.0691404 5.05779 0.192211C5.18086 0.315282 5.25 0.482202 5.25 0.65625V1.3125H15.75V0.65625C15.75 0.482202 15.8191 0.315282 15.9422 0.192211C16.0653 0.0691404 16.2322 0 16.4062 0C16.5803 0 16.7472 0.0691404 16.8703 0.192211C16.9934 0.315282 17.0625 0.482202 17.0625 0.65625V1.3125H18.375C19.0712 1.3125 19.7389 1.58906 20.2312 2.08134C20.7234 2.57363 21 3.24131 21 3.9375V18.375C21 19.0712 20.7234 19.7389 20.2312 20.2312C19.7389 20.7234 19.0712 21 18.375 21H2.625C1.92881 21 1.26113 20.7234 0.768845 20.2312C0.276562 19.7389 0 19.0712 0 18.375V3.9375C0 3.24131 0.276562 2.57363 0.768845 2.08134C1.26113 1.58906 1.92881 1.3125 2.625 1.3125H3.9375V0.65625C3.9375 0.482202 4.00664 0.315282 4.12971 0.192211C4.25278 0.0691404 4.4197 0 4.59375 0V0ZM1.3125 5.25V18.375C1.3125 18.7231 1.45078 19.0569 1.69692 19.3031C1.94306 19.5492 2.2769 19.6875 2.625 19.6875H18.375C18.7231 19.6875 19.0569 19.5492 19.3031 19.3031C19.5492 19.0569 19.6875 18.7231 19.6875 18.375V5.25H1.3125Z" fill="#636363"/>
</svg>
